<svg width="20" height="10" viewBox="0 0 20 10" fill="none" xmlns="http://www.w3.org/2000/svg">
<path d="M5.03906 7.73438C5.66406 7.17448 6.1263 6.7513 6.42578 6.46484C6.72526 6.17839 7.05078 5.83984 7.40234 5.44922C7.75391 5.05859 7.99479 4.71354 8.125 4.41406C8.26823 4.11458 8.33984 3.82161 8.33984 3.53516C8.33984 3.11849 8.19661 2.77344 7.91016 2.5C7.63672 2.22656 7.29167 2.08984 6.875 2.08984C6.54948 2.08984 6.24349 2.18099 5.95703 2.36328C5.68359 2.54557 5.49479 2.77995 5.39062 3.06641H4.60938C4.50521 2.77995 4.3099 2.54557 4.02344 2.36328C3.75 2.18099 3.45052 2.08984 3.125 2.08984C2.70833 2.08984 2.35677 2.22656 2.07031 2.5C1.79688 2.77344 1.66016 3.11849 1.66016 3.53516C1.66016 3.82161 1.72526 4.11458 1.85547 4.41406C1.9987 4.71354 2.24609 5.05859 2.59766 5.44922C2.94922 5.83984 3.27474 6.17839 3.57422 6.46484C3.8737 6.7513 4.33594 7.17448 4.96094 7.73438L5 7.77344L5.03906 7.73438ZM6.875 1.25C7.52604 1.25 8.06641 1.47135 8.49609 1.91406C8.9388 2.35677 9.16016 2.89714 9.16016 3.53516C9.16016 3.91276 9.08854 4.28385 8.94531 4.64844C8.80208 5 8.53516 5.39714 8.14453 5.83984C7.76693 6.28255 7.42188 6.65365 7.10938 6.95312C6.79688 7.2526 6.29557 7.71484 5.60547 8.33984L5 8.88672L4.39453 8.35938C3.49609 7.55208 2.84505 6.94661 2.44141 6.54297C2.05078 6.13932 1.6862 5.66406 1.34766 5.11719C1.00911 4.57031 0.839844 4.04297 0.839844 3.53516C0.839844 2.89714 1.05469 2.35677 1.48438 1.91406C1.92708 1.47135 2.47396 1.25 3.125 1.25C3.88021 1.25 4.50521 1.54297 5 2.12891C5.49479 1.54297 6.11979 1.25 6.875 1.25Z" fill="#1F2041" fill-opacity="0.25"/>
<path d="M15 8.88672L14.3945 8.33984C13.7044 7.71484 13.2031 7.2526 12.8906 6.95312C12.5781 6.65365 12.2266 6.28255 11.8359 5.83984C11.4583 5.39714 11.1979 5 11.0547 4.64844C10.9115 4.28385 10.8398 3.91276 10.8398 3.53516C10.8398 2.89714 11.0547 2.35677 11.4844 1.91406C11.9271 1.47135 12.474 1.25 13.125 1.25C13.8802 1.25 14.5052 1.54297 15 2.12891C15.4948 1.54297 16.1198 1.25 16.875 1.25C17.526 1.25 18.0664 1.47135 18.4961 1.91406C18.9388 2.35677 19.1602 2.89714 19.1602 3.53516C19.1602 4.04297 18.9909 4.57031 18.6523 5.11719C18.3138 5.66406 17.9427 6.13932 17.5391 6.54297C17.1484 6.94661 16.5039 7.55208 15.6055 8.35938L15 8.88672Z" fill="url(#paint0_linear)"/>
<defs>
<linearGradient id="paint0_linear" x1="15" y1="0" x2="15" y2="10" gradientUnits="userSpaceOnUse">
<stop stop-color="#BC9CFF"/>
<stop offset="1" stop-color="#8BA4F9"/>
</linearGradient>
</defs>
</svg>
