<svg width="200" height="200" viewBox="0 0 200 200" fill="none" xmlns="http://www.w3.org/2000/svg">
<g clip-path="url(#clip0_697_37)">
<path d="M108.001 33.17V12C108.001 9.87827 107.158 7.84344 105.658 6.34315C104.158 4.84286 102.123 4 100.001 4C97.8794 4 95.8445 4.84286 94.3443 6.34315C92.844 7.84344 92.0011 9.87827 92.0011 12V33.17C86.2221 34.8914 81.1534 38.4327 77.5492 43.267C73.945 48.1013 71.998 53.9701 71.998 60C71.998 66.0299 73.945 71.8987 77.5492 76.733C81.1534 81.5673 86.2221 85.1086 92.0011 86.83V188C92.0011 190.122 92.844 192.157 94.3443 193.657C95.8445 195.157 97.8794 196 100.001 196C102.123 196 104.158 195.157 105.658 193.657C107.158 192.157 108.001 190.122 108.001 188V86.83C113.78 85.1086 118.849 81.5673 122.453 76.733C126.057 71.8987 128.004 66.0299 128.004 60C128.004 53.9701 126.057 48.1013 122.453 43.267C118.849 38.4327 113.78 34.8914 108.001 33.17V33.17ZM100.001 72C97.6277 72 95.3077 71.2962 93.3343 69.9776C91.3609 68.6591 89.8228 66.7849 88.9146 64.5922C88.0063 62.3995 87.7687 59.9867 88.2317 57.6589C88.6947 55.3311 89.8376 53.1929 91.5158 51.5147C93.1941 49.8365 95.3323 48.6936 97.66 48.2306C99.9878 47.7676 102.401 48.0052 104.593 48.9134C106.786 49.8217 108.66 51.3598 109.979 53.3332C111.297 55.3066 112.001 57.6266 112.001 60C111.997 63.1815 110.732 66.2316 108.482 68.4812C106.233 70.7308 103.183 71.9963 100.001 72V72ZM200.001 140C199.993 133.972 198.044 128.108 194.441 123.275C190.839 118.443 185.775 114.899 180.001 113.17L180.002 12C180.002 9.87827 179.159 7.84344 177.659 6.34315C176.159 4.84286 174.124 4 172.002 4C169.88 4 167.846 4.84286 166.345 6.34315C164.845 7.84344 164.002 9.87827 164.002 12L164.001 113.17C158.222 114.891 153.153 118.433 149.549 123.267C145.945 128.101 143.998 133.97 143.998 140C143.998 146.03 145.945 151.899 149.549 156.733C153.153 161.567 158.222 165.109 164.001 166.83L164.002 188C164.002 190.122 164.845 192.157 166.345 193.657C167.846 195.157 169.88 196 172.002 196C174.124 196 176.159 195.157 177.659 193.657C179.159 192.157 180.002 190.122 180.002 188L180.001 166.83C185.775 165.101 190.839 161.558 194.441 156.725C198.044 151.892 199.993 146.028 200.001 140V140ZM172.001 152C169.628 152 167.308 151.296 165.334 149.978C163.361 148.659 161.823 146.785 160.915 144.592C160.006 142.399 159.769 139.987 160.232 137.659C160.695 135.331 161.838 133.193 163.516 131.515C165.194 129.836 167.332 128.694 169.66 128.231C171.988 127.768 174.401 128.005 176.593 128.913C178.786 129.822 180.66 131.36 181.979 133.333C183.297 135.307 184.001 137.627 184.001 140C183.997 143.181 182.732 146.232 180.482 148.481C178.233 150.731 175.183 151.996 172.001 152ZM36.0011 81.17V12C36.0011 9.87827 35.1582 7.84344 33.658 6.34315C32.1577 4.84286 30.1228 4 28.0011 4C25.8794 4 23.8445 4.84286 22.3443 6.34315C20.844 7.84344 20.0011 9.87827 20.0011 12V81.17C14.2221 82.8914 9.15335 86.4327 5.54918 91.267C1.945 96.1013 -0.00195313 101.97 -0.00195312 108C-0.00195313 114.03 1.945 119.899 5.54918 124.733C9.15335 129.567 14.2221 133.109 20.0011 134.83V188C20.0011 190.122 20.844 192.157 22.3443 193.657C23.8445 195.157 25.8794 196 28.0011 196C30.1228 196 32.1577 195.157 33.658 193.657C35.1582 192.157 36.0011 190.122 36.0011 188V134.83C41.7801 133.109 46.8489 129.567 50.453 124.733C54.0572 119.899 56.0042 114.03 56.0042 108C56.0042 101.97 54.0572 96.1013 50.453 91.267C46.8489 86.4327 41.7801 82.8914 36.0011 81.17V81.17ZM28.0011 120C25.6277 120 23.3077 119.296 21.3343 117.978C19.3609 116.659 17.8228 114.785 16.9145 112.592C16.0063 110.399 15.7687 107.987 16.2317 105.659C16.6947 103.331 17.8376 101.193 19.5158 99.5147C21.1941 97.8365 23.3322 96.6936 25.66 96.2306C27.9878 95.7676 30.4006 96.0052 32.5933 96.9134C34.786 97.8217 36.6602 99.3598 37.9787 101.333C39.2973 103.307 40.0011 105.627 40.0011 108C39.9974 111.181 38.7319 114.232 36.4823 116.481C34.2327 118.731 31.1826 119.996 28.0011 120V120Z" fill="#8F90A0"/>
</g>
<defs>
<clipPath id="clip0_697_37">
<rect width="200" height="200" fill="white"/>
</clipPath>
</defs>
</svg>
